<?xml version="1.0" encoding="utf-8"?>
<!-- Generator: Adobe Illustrator 28.2.0, SVG Export Plug-In . SVG Version: 6.00 Build 0)  -->
<svg version="1.1" id="Ebene_1" xmlns="http://www.w3.org/2000/svg" xmlns:xlink="http://www.w3.org/1999/xlink" x="0px" y="0px"
	 viewBox="0 0 355.3 81.4" style="enable-background:new 0 0 355.3 81.4;" xml:space="preserve">
<style type="text/css">
	.st0{fill:#009BAC;}
	.st1{fill:#FFFFFF;}
	.st2{fill:#000050;}
</style>
<rect x="0" class="st0" width="270.1" height="81.4"/>
<g>
	<g>
		<path class="st1" d="M38.7,61.9c-0.3,0-0.5-0.2-0.5-0.5c0-0.2,0.1-0.3,0.2-0.4l10-7.4l-26.3,0c-0.3,0-0.5-0.2-0.5-0.5
			c0-0.2,0.1-0.3,0.2-0.4l13.7-10.1c0.1-0.1,0.2-0.1,0.3-0.1h10.7c2.4,0.1,3.7,0.3,4.4,0.8c0.9,0.6,1.2,1.3,1.3,1.7
			c1.2,3.3,2.7,13.7,2.8,14.2c0.1-0.5,1.6-10.9,2.8-14.2c0.2-0.5,0.4-1.1,1.3-1.7c0.7-0.5,2-0.7,4.4-0.8h26.1c0.3,0,0.5,0.2,0.5,0.5
			c0,0.2-0.1,0.3-0.2,0.4L65.1,61.8c-0.1,0.1-0.2,0.1-0.3,0.1H38.7z"/>
		<path class="st1" d="M88.1,27.7c0.3,0,0.5,0.2,0.5,0.5c0,0.2-0.1,0.3-0.2,0.4L74.5,38.8c-0.1,0.1-0.2,0.1-0.3,0.1H63.6
			c-2.4-0.1-3.7-0.3-4.4-0.8c-0.9-0.6-1.2-1.3-1.3-1.7c-1.2-3.3-2.7-13.7-2.8-14.2C55,22.6,53.5,33,52.3,36.3
			c-0.2,0.5-0.4,1.1-1.3,1.7c-0.7,0.5-2,0.7-4.4,0.8l-26.1,0c-0.3,0-0.5-0.2-0.5-0.5c0-0.1,0.1-0.3,0.2-0.4l0.8-0.6l24.2-17.9
			c0.1-0.1,0.2-0.1,0.3-0.1h26.1c0.3,0,0.5,0.2,0.5,0.5c0,0.2-0.1,0.3-0.2,0.4l-10,7.4L88.1,27.7z"/>
	</g>
	<path class="st1" d="M130.7,54.4l-6.9-14.1L117,54.4H116l-11.6-26.7h8.3l4.9,11.2h0.2l5.6-11.7h0.9l5.9,11.7h0.2l4.8-11.2h8.2
		l-11.6,26.7H130.7z"/>
	<path class="st1" d="M152.9,27.7v26h-7.7v-26H152.9z"/>
	<path class="st1" d="M165.3,47.8h11.2v5.8h-18.9v-26H176v5.8h-10.6v4h9.2V43h-9.2V47.8z"/>
	<path class="st1" d="M225.8,27.7v26h-7.7v-26H225.8z"/>
	<path class="st1" d="M250.2,27.7v5.8h-7.1v20.2h-7.7V33.5h-7.1v-5.8H250.2z"/>
	<polygon class="st1" points="196.4,27.7 196.4,39.5 196.2,39.5 181.6,27 180.3,27 180.3,53.7 188,53.7 188,41.8 188.2,41.8 
		202.8,54.3 204.1,54.3 204.1,27.7 	"/>
</g>
<g>
	<path class="st2" d="M340.2,33.9L337.9,46l-2.4-12.1c-0.3-1.6-1.7-2.7-3.3-2.7h-58.4v50.3v0.2h81.5v-0.2V31.1h-11.7
		C342,31.1,340.6,32.3,340.2,33.9z"/>
	<path class="st2" d="M273.7,0v27.5h58.4c1.6,0,3-1.2,3.3-2.7l2.4-12.1l2.4,12.1c0.3,1.6,1.7,2.7,3.3,2.7h11.7V0H273.7z"/>
	<path class="st1" d="M340.2,24.8l-2.4-12.1l-2.4,12.1c-0.3,1.6-1.7,2.7-3.3,2.7h-58.4v3.6h58.4c1.6,0,3,1.2,3.3,2.7l2.4,12.1
		l2.4-12.1c0.3-1.6,1.7-2.7,3.3-2.7h11.7v-3.6h-11.7C342,27.6,340.6,26.4,340.2,24.8z"/>
</g>
</svg>
